HIERARCHY
ROOT ui
{
	 OFFSET 0 0 0
	 CHANNELS 3 XPosition YPosition Z Position
	 EndSite
	 {
	 OFFSET 0 -1 0
	 }
}
ROOT li
{
	 OFFSET 0 0 0
	 CHANNELS 3 XPosition YPosition Z Position
	 EndSite
	 {
	 OFFSET 0 -1 0
	 }
}
ROOT ul
{
	 OFFSET 0 0 0
	 CHANNELS 3 XPosition YPosition Z Position
	 EndSite
	 {
	 OFFSET 0 -1 0
	 }
}
ROOT ll
{
	 OFFSET 0 0 0
	 CHANNELS 3 XPosition YPosition Z Position
	 EndSite
	 {
	 OFFSET 0 -1 0
	 }
}
ROOT tt
{
	 OFFSET 0 0 0
	 CHANNELS 3 XPosition YPosition Z Position
	 EndSite
	 {
	 OFFSET 0 -1 0
	 }
}
ROOT tb
{
	 OFFSET 0 0 0
	 CHANNELS 3 XPosition YPosition Z Position
	 EndSite
	 {
	 OFFSET 0 -1 0
	 }
}
ROOT td
{
	 OFFSET 0 0 0
	 CHANNELS 3 XPosition YPosition Z Position
	 EndSite
	 {
	 OFFSET 0 -1 0
	 }
}
ROOT v
{
	 OFFSET 0 0 0
	 CHANNELS 3 XPosition YPosition Z Position
	 EndSite
	 {
	 OFFSET 0 -1 0
	 }
}
ROOT bn
{
	 OFFSET 0 0 0
	 CHANNELS 3 XPosition YPosition Z Position
	 EndSite
	 {
	 OFFSET 0 -1 0
	 }
}
MOTION
Frames: 18
Frame Time: 0.002
-0.017812559127807617	7.520419955253601E-4	0		0.39653390502929686	-2.300541015625	0		-1.1033656005859376	-0.10827799224853515	0		-0.9043606567382813	-2.32899169921875	0		1.4679512939453125	-0.4038105163574219	0		3.083258544921875	0.16010020446777343	0		4.48061865234375	0.2095120849609375	0		5.63158935546875	0.0070865521430969235	0		-0.03110721778869629	5.935365234375	0		
0.058760032653808594	9.715059995651245E-4	0		0.424196044921875	-2.299271240234375	0		-1.0909442138671874	-0.11474033355712891	0		-0.938577880859375	-2.3214560546875	0		1.4568533935546875	-0.3876824035644531	0		3.109154296875	0.1765007781982422	0		4.4891572265625	0.20932371520996093	0		5.6480693359375	0.0037689759731292724	0		-0.1510107116699219	5.924732421875	0		
-0.021763771057128907	0.0035239770412445067	0		0.3937823486328125	-2.29576220703125	0		-1.1103720703125	-0.10851641082763672	0		-0.8851151123046875	-2.324766357421875	0		1.4681324462890626	-0.39602236938476565	0		3.075508544921875	0.17316680908203125	0		4.4807578125	0.2175066223144531	0		5.619787109375	0.01741286277770996	0		-0.03950632858276367	5.93622119140625	0		
0.04851116943359375	-0.002097166061401367	0		0.4151250305175781	-2.301336181640625	0		-1.1211385498046875	-0.1154663314819336	0		-0.9405646362304687	-2.3197626953125	0		1.460438232421875	-0.39994876098632814	0		3.0747724609375	0.16814756774902342	0		4.46402392578125	0.212872314453125	0		5.62099267578125	0.009438390731811524	0		-0.042353073120117185	5.9351376953125	0		
-0.03698631286621094	0.0055820498466491696	0		0.40745474243164065	-2.3062841796875	0		-1.1247767333984375	-0.11555027008056641	0		-0.9102427368164062	-2.32555517578125	0		1.4568094482421876	-0.3999473876953125	0		3.068956787109375	0.16024613952636718	0		4.45733349609375	0.2110364990234375	0		5.613140625	-3.363629877567291E-4	0		-0.04619119262695313	5.93508935546875	0		
0.04125136184692383	-0.0021729960441589356	0		0.37902059936523436	-2.30077880859375	0		-1.1283909912109376	-0.11561793518066406	0		-0.9748154296875	-2.32633349609375	0		1.4363131103515625	-0.39457696533203124	0		3.071626708984375	0.17418241882324217	0		4.462685546875	0.20995712280273438	0		5.61368994140625	0.007724024772644043	0		-0.03476968383789063	5.94573828125	0		
-0.036201610565185546	0.003363317012786865	0		0.3796400451660156	-2.29586962890625	0		-1.1319407958984375	-0.11566857147216797	0		-0.9511582641601563	-2.31994775390625	0		1.4358338623046876	-0.3916146545410156	0		3.061048828125	0.17340428161621094	0		4.454294921875	0.21817655944824219	0		5.61013623046875	0.007874670028686524	0		-0.052749195098876954	5.9340166015625	0		
0.03241778564453125	0.005850227832794189	0		0.37419174194335936	-2.29881884765625	0		-1.1394482421875	-0.11861721801757813	0		-0.9664360961914062	-2.3147255859375	0		1.4503082275390624	-0.39595407104492186	0		3.073592041015625	0.17315023803710938	0		4.4508408203125	0.21829586791992187	0		5.616685546875	0.007815933227539063	0		-0.18881269836425782	5.9137841796875	0		
0.03094489860534668	-0.0021775789260864258	0		0.4207432556152344	-2.308843017578125	0		-1.1468121337890624	-0.12154891967773437	0		-0.9378174438476562	-2.321406005859375	0		1.4229554443359376	-0.39840432739257814	0		3.064242431640625	0.1713623046875	0		4.443384765625	0.21150053405761718	0		5.60342431640625	0.010172489166259766	0		-0.05980832290649414	5.93402294921875	0		
0.027818944931030272	-0.0021531078815460207	0		0.35495159912109375	-2.29449560546875	0		-1.149935546875	-0.12154928588867188	0		-0.9887166748046875	-2.31239990234375	0		1.4367296142578125	-0.40370492553710935	0		3.054051513671875	0.1685977783203125	0		4.44025439453125	0.21161805725097657	0		5.59030029296875	0.010523601531982422	0		-0.06305946350097656	5.93404541015625	0		
0.024900468826293945	-0.002118014097213745	0		0.41478912353515623	-2.30876806640625	0		-1.1469576416015625	-0.12665972900390626	0		-0.9817628173828125	-2.32059033203125	0		1.421800048828125	-0.40439346313476565	0		3.04896337890625	0.1607310333251953	0		4.44630908203125	0.21054495239257812	0		5.59896142578125	-0.009587272644042969	0		-0.06414820861816406	5.9310380859375	0		
0.025273073196411134	8.63277018070221E-4	0		0.37320556640625	-2.304904052734375	0		-1.1455833740234376	-0.12371693420410156	0		-0.934553466796875	-2.327603515625	0		1.45213037109375	-0.40401712036132814	0		3.07149560546875	0.17129669189453126	0		4.44876171875	0.21755009460449218	0		5.6046044921875	0.006370590209960937	0		-0.05172126007080078	5.940765625	0		
0.022827871322631837	9.165480136871338E-4	0		0.41486172485351563	-2.301765625	0		-1.157983154296875	-0.12146937561035157	0		-0.9607362060546875	-2.316063232421875	0		1.414885498046875	-0.39421844482421875	0		3.043095947265625	0.1739283905029297	0		4.4363369140625	0.21886453247070312	0		5.59803466796875	5.751219987869263E-4	0		-0.20285191345214842	5.9129130859375	0		
0.020635873794555663	9.776319861412048E-4	0		0.3557024230957031	-2.30051220703125	0		-1.167318603515625	-0.1282711639404297	0		-0.9669902954101562	-2.319926513671875	0		1.4674764404296874	-0.4052901306152344	0		3.02782177734375	0.17028814697265626	0		4.429998046875	0.21204951477050782	0		5.5958427734375	6.853839755058288E-4	0		-0.08689228820800782	5.9215087890625	0		
0.01563850498199463	-0.0018912249803543092	0		0.40356161499023435	-2.311482666015625	0		-1.17331494140625	-0.13112641906738282	0		-0.972994140625	-2.323780517578125	0		1.404598388671875	-0.4019418029785156	0		3.0355703125	0.15516915893554686	0		4.42876904296875	0.19812652587890625	0		5.5897412109375	-0.007127521991729736	0		-0.07463752746582031	5.93228173828125	0		
0.013957950592041015	-0.0018174389600753784	0		0.32311587524414065	-2.299762451171875	0		-1.165038818359375	-0.13326541137695314	0		-0.9746654663085937	-2.32371044921875	0		1.428767822265625	-0.40940304565429686	0		3.0401796875	0.16912680053710938	0		4.43535693359375	0.2110482177734375	0		5.59218505859375	-0.0011163079738616944	0		-0.07438377380371093	5.93031396484375	0		
0.012526459693908691	-0.0017385339736938476	0		0.3527247619628906	-2.29832958984375	0		-1.172364501953125	-0.12806529235839845	0		-1.0099798583984374	-2.31792626953125	0		1.392532470703125	-0.3995931396484375	0		3.03658154296875	0.1612562713623047	0		4.4339248046875	0.21113755798339845	0		5.5949609375	0.008890192985534668	0		-0.07680818939208985	5.9314130859375	0		
0.01439646053314209	0.0012819080352783204	0		0.35153533935546877	-2.29824560546875	0		-1.177617919921875	-0.13089889526367188	0		-0.9413303833007812	-2.326301513671875	0		1.420272216796875	-0.40311187744140625	0		3.0506572265625	0.1740276336669922	0		4.43273291015625	0.21122592163085938	0		5.58539599609375	-0.008849522590637208	0		-0.07800643157958985	5.93149658203125	0		
